PathFileType	4	(X/Y/Z)	 C:\Users\z3550257\Dropbox\University\GitHubClones\TheiaOpensim\ExampleData\P01_procesed_with_single_calib\C3D_data\jump_0_Theia.trc
DataRate	CameraRate	NumFrames	NumMarkers	Units	OrigDataRate	OrigDataStartFrame	OrigNumFrames
100	100	8	40	m	100	1864	2485
Frame#	Time	PELVIS1			LHIP			LKNEE			LANK			LMTP			RHIP			RKNEE			RANK			RMTP			CVJ			TORSO			LSHO			LELB			LWRIST			RSHO			RELB			RWRIST			LCALC			RCALC			LTOE			RTOE			LHAND			RHAND			HEAD_CENTRE			TORSO_LOW			LTHI			RTHI			LSHA			RSHA			L_LCALC			R_LCALC			LUA			RUA			LFRM			RFRM			HEAD_L			HEAD_R			TORSO_L			TORSO_R			PELVIS2			
		X1	Y1	Z1	X2	Y2	Z2	X3	Y3	Z3	X4	Y4	Z4	X5	Y5	Z5	X6	Y6	Z6	X7	Y7	Z7	X8	Y8	Z8	X9	Y9	Z9	X10	Y10	Z10	X11	Y11	Z11	X12	Y12	Z12	X13	Y13	Z13	X14	Y14	Z14	X15	Y15	Z15	X16	Y16	Z16	X17	Y17	Z17	X18	Y18	Z18	X19	Y19	Z19	X20	Y20	Z20	X21	Y21	Z21	X22	Y22	Z22	X23	Y23	Z23	X24	Y24	Z24	X25	Y25	Z25	X26	Y26	Z26	X27	Y27	Z27	X28	Y28	Z28	X29	Y29	Z29	X30	Y30	Z30	X31	Y31	Z31	X32	Y32	Z32	X33	Y33	Z33	X34	Y34	Z34	X35	Y35	Z35	X36	Y36	Z36	X37	Y37	Z37	X38	Y38	Z38	X39	Y39	Z39	X40	Y40	Z40	
1864	18.6400	0.283883	0.977659	-0.150430	0.294859	0.886325	-0.242297	0.303320	0.493516	-0.268055	0.279333	0.097888	-0.297086	0.426183	0.036129	-0.324289	0.291879	0.884424	-0.060180	0.282695	0.495080	-0.015805	0.258570	0.097859	0.021808	0.406130	0.036402	0.040800	0.276966	1.598126	-0.167424	0.300831	1.498588	-0.164917	0.284089	1.410614	-0.334822	0.210079	1.174730	-0.519248	0.327426	0.989508	-0.382006	0.283021	1.420331	0.010808	0.185561	1.195372	0.198514	0.267882	0.977099	0.083942	0.224872	0.028652	-0.284323	0.203410	0.027999	0.010528	0.474927	0.035429	-0.333802	0.455582	0.036299	0.048100	0.365899	0.967447	-0.327592	0.306624	0.946363	0.035346	0.314537	1.629885	-0.168337	0.308037	1.244252	-0.157552	0.288028	0.691414	-0.329406	0.275853	0.694428	0.036086	0.281680	0.299698	-0.346739	0.260744	0.302984	0.066909	0.264114	0.045186	-0.331591	0.244547	0.046070	0.058155	0.269951	1.278435	-0.394227	0.255071	1.291022	0.071618	0.267297	1.113679	-0.424390	0.234956	1.115684	0.113605	0.242487	1.718118	-0.242677	0.241391	1.718116	-0.092681	0.302211	1.494285	-0.314848	0.299451	1.502891	-0.014985	0.293369	0.885374	-0.151239	
1865	18.6500	0.284605	0.977653	-0.149780	0.295601	0.886338	-0.241662	0.303687	0.493536	-0.267644	0.279421	0.097935	-0.296795	0.426179	0.036084	-0.324283	0.292663	0.884408	-0.059545	0.282546	0.495043	-0.015556	0.258397	0.097809	0.021909	0.406052	0.036535	0.040753	0.277198	1.598024	-0.166051	0.300940	1.498531	-0.163877	0.284178	1.410875	-0.333879	0.210053	1.174865	-0.518099	0.328119	0.989743	-0.381334	0.283505	1.420272	0.011804	0.186374	1.195101	0.199428	0.268886	0.977021	0.084626	0.224912	0.028728	-0.284077	0.203316	0.027881	0.010667	0.474909	0.035552	-0.333867	0.455509	0.036399	0.048001	0.366960	0.967845	-0.327114	0.307760	0.946437	0.036040	0.314669	1.629901	-0.166912	0.308490	1.244197	-0.156784	0.288528	0.691482	-0.328874	0.276046	0.694356	0.036507	0.281862	0.299760	-0.346378	0.260484	0.302923	0.067067	0.264110	0.045304	-0.331367	0.244475	0.045996	0.058259	0.270110	1.278674	-0.393251	0.255719	1.290898	0.072552	0.267498	1.113794	-0.423391	0.235503	1.115493	0.114290	0.242349	1.718029	-0.241111	0.241249	1.717783	-0.091116	0.302137	1.494384	-0.313814	0.299743	1.502677	-0.013939	0.294132	0.885373	-0.150604	
1866	18.6600	0.285302	0.977618	-0.149191	0.296349	0.886309	-0.241074	0.304064	0.493513	-0.267251	0.279533	0.097935	-0.296487	0.426189	0.035980	-0.324279	0.293413	0.884378	-0.058957	0.282556	0.494991	-0.015326	0.258282	0.097762	0.022122	0.406026	0.036624	0.040691	0.277395	1.597898	-0.164736	0.301049	1.498479	-0.162818	0.284319	1.411077	-0.332929	0.210115	1.174929	-0.516939	0.328721	0.989808	-0.380634	0.283927	1.420138	0.012652	0.187125	1.194789	0.200232	0.269906	0.976910	0.085243	0.224961	0.028762	-0.283855	0.203261	0.027790	0.010859	0.474905	0.035664	-0.333935	0.455491	0.036491	0.047871	0.367826	0.968102	-0.326521	0.308954	0.946434	0.036730	0.314765	1.629896	-0.165545	0.309001	1.244150	-0.156014	0.289056	0.691503	-0.328376	0.276214	0.694270	0.036882	0.282077	0.299770	-0.346022	0.260257	0.302882	0.067257	0.264123	0.045395	-0.331155	0.244463	0.045885	0.058421	0.270314	1.278847	-0.392250	0.256315	1.290710	0.073365	0.267821	1.113821	-0.422413	0.236042	1.115264	0.114896	0.242163	1.717909	-0.239607	0.241063	1.717422	-0.089612	0.302082	1.494499	-0.312762	0.300015	1.502458	-0.012875	0.294881	0.885344	-0.150015	
1867	18.6700	0.285977	0.977555	-0.148655	0.297088	0.886242	-0.240526	0.304444	0.493453	-0.266903	0.279661	0.097894	-0.296204	0.426219	0.035828	-0.324269	0.294137	0.884329	-0.058409	0.282723	0.494921	-0.015106	0.258238	0.097710	0.022414	0.406059	0.036651	0.040632	0.277533	1.597762	-0.163483	0.301165	1.498441	-0.161737	0.284504	1.411221	-0.331959	0.210288	1.174945	-0.515801	0.329216	0.989720	-0.379914	0.284276	1.419930	0.013353	0.187815	1.194430	0.200928	0.270946	0.976760	0.085796	0.225016	0.028758	-0.283695	0.203260	0.027721	0.011061	0.474924	0.035737	-0.333979	0.455534	0.036560	0.047742	0.368433	0.968197	-0.325805	0.310161	0.946375	0.037362	0.314799	1.629881	-0.164246	0.309559	1.244118	-0.155233	0.289619	0.691487	-0.327927	0.276422	0.694167	0.037228	0.282335	0.299736	-0.345706	0.260122	0.302848	0.067476	0.264159	0.045458	-0.330987	0.244513	0.045737	0.058608	0.270562	1.278962	-0.391229	0.256853	1.290459	0.074059	0.268237	1.113772	-0.421465	0.236654	1.115005	0.115458	0.241908	1.717776	-0.238163	0.240826	1.717052	-0.088169	0.302062	1.494636	-0.311686	0.300267	1.502246	-0.011787	0.295612	0.885285	-0.149468	
1868	18.6800	0.286629	0.977467	-0.148159	0.297798	0.886146	-0.240015	0.304817	0.493366	-0.266619	0.279794	0.097827	-0.295978	0.426271	0.035658	-0.324244	0.294849	0.884262	-0.057898	0.283025	0.494833	-0.014888	0.258268	0.097647	0.022724	0.406144	0.036618	0.040592	0.277586	1.597628	-0.162296	0.301298	1.498420	-0.160640	0.284721	1.411315	-0.330969	0.210558	1.174943	-0.514710	0.329600	0.989511	-0.379202	0.284561	1.419665	0.013933	0.188469	1.194034	0.201539	0.271999	0.976578	0.086291	0.225074	0.028725	-0.283612	0.203315	0.027661	0.011228	0.474971	0.035749	-0.333984	0.455626	0.036589	0.047647	0.368790	0.968143	-0.325010	0.311317	0.946278	0.037886	0.314753	1.629864	-0.163022	0.310147	1.244105	-0.154446	0.290215	0.691449	-0.327535	0.276745	0.694048	0.037565	0.282636	0.299672	-0.345456	0.260135	0.302801	0.067712	0.264218	0.045491	-0.330879	0.244614	0.045560	0.058781	0.270842	1.279033	-0.390204	0.257345	1.290158	0.074655	0.268707	1.113668	-0.420562	0.237410	1.114734	0.116017	0.241565	1.717645	-0.236782	0.240533	1.716689	-0.086789	0.302089	1.494795	-0.310595	0.300507	1.502045	-0.010686	0.296323	0.885204	-0.148956	
1869	18.6900	0.287255	0.977365	-0.147690	0.298457	0.886037	-0.239535	0.305168	0.493270	-0.266396	0.279918	0.097750	-0.295826	0.426338	0.035498	-0.324206	0.295561	0.884179	-0.057417	0.283422	0.494731	-0.014667	0.258352	0.097569	0.022987	0.406261	0.036536	0.040585	0.277542	1.597509	-0.161179	0.301459	1.498414	-0.159550	0.284960	1.411376	-0.329977	0.210877	1.174947	-0.513679	0.329886	0.989225	-0.378539	0.284805	1.419370	0.014435	0.189117	1.193619	0.202101	0.273058	0.976386	0.086731	0.225132	0.028675	-0.283598	0.203415	0.027597	0.011329	0.475038	0.035693	-0.333953	0.455748	0.036569	0.047609	0.368969	0.967974	-0.324225	0.312376	0.946159	0.038280	0.314614	1.629856	-0.161880	0.310746	1.244106	-0.153671	0.290826	0.691407	-0.327198	0.277231	0.693916	0.037908	0.282965	0.299598	-0.345281	0.260322	0.302728	0.067944	0.264295	0.045498	-0.330830	0.244739	0.045374	0.058905	0.271136	1.279081	-0.389196	0.257812	1.289830	0.075186	0.269184	1.113535	-0.419717	0.238345	1.114479	0.116600	0.241124	1.717527	-0.235470	0.240183	1.716351	-0.085478	0.302166	1.494973	-0.309509	0.300752	1.501854	-0.009590	0.297009	0.885108	-0.148476	
1870	18.7000	0.287855	0.977261	-0.147236	0.299052	0.885937	-0.239085	0.305481	0.493184	-0.266221	0.280021	0.097685	-0.295750	0.426408	0.035370	-0.324166	0.296279	0.884084	-0.056966	0.283863	0.494619	-0.014446	0.258463	0.097473	0.023153	0.406383	0.036424	0.040609	0.277401	1.597414	-0.160134	0.301654	1.498416	-0.158493	0.285213	1.411425	-0.329016	0.211181	1.174972	-0.512708	0.330096	0.988908	-0.377960	0.285036	1.419075	0.014909	0.189783	1.193204	0.202652	0.274111	0.976209	0.087115	0.225183	0.028630	-0.283632	0.203535	0.027517	0.011354	0.475111	0.035577	-0.333901	0.455872	0.036504	0.047631	0.369077	0.967732	-0.323545	0.313341	0.946029	0.038560	0.314382	1.629865	-0.160826	0.311341	1.244116	-0.152937	0.291417	0.691376	-0.326904	0.277878	0.693776	0.038259	0.283290	0.299537	-0.345173	0.260659	0.302621	0.068150	0.264372	0.045489	-0.330830	0.244861	0.045202	0.058964	0.271424	1.279125	-0.388233	0.258273	1.289502	0.075693	0.269632	1.113395	-0.418943	0.239429	1.114261	0.117213	0.240579	1.717430	-0.234229	0.239780	1.716050	-0.084239	0.302288	1.495164	-0.308456	0.301021	1.501667	-0.008529	0.297666	0.885010	-0.148026	
1871	18.7100	0.288433	0.977166	-0.146795	0.299580	0.885861	-0.238669	0.305738	0.493122	-0.266072	0.280097	0.097645	-0.295745	0.426463	0.035271	-0.324140	0.296998	0.883980	-0.056547	0.284297	0.494503	-0.014230	0.258572	0.097362	0.023197	0.406485	0.036295	0.040654	0.277180	1.597348	-0.159160	0.301882	1.498423	-0.157501	0.285480	1.411484	-0.328131	0.211413	1.175018	-0.511791	0.330261	0.988594	-0.377485	0.285278	1.418804	0.015401	0.190474	1.192803	0.203213	0.275146	0.976071	0.087436	0.225217	0.028613	-0.283694	0.203646	0.027417	0.011325	0.475172	0.035423	-0.333853	0.455972	0.036409	0.047696	0.369218	0.967460	-0.323039	0.314256	0.945904	0.038774	0.314071	1.629900	-0.159860	0.311917	1.244130	-0.152272	0.291935	0.691369	-0.326640	0.278625	0.693635	0.038610	0.283567	0.299509	-0.345111	0.261081	0.302481	0.068310	0.264435	0.045481	-0.330864	0.244956	0.045063	0.058963	0.271692	1.279182	-0.387344	0.258742	1.289196	0.076207	0.270030	1.113267	-0.418245	0.240576	1.114089	0.117829	0.239939	1.717355	-0.233061	0.239334	1.715789	-0.083071	0.302437	1.495361	-0.307469	0.301327	1.501485	-0.007533	0.298289	0.884921	-0.147608	
